<svg width="16" height="17" viewBox="0 0 16 17" fill="none" xmlns="http://www.w3.org/2000/svg">
<path d="M4.66666 0.910714V3.94643C4.66666 4.44941 4.33087 4.85714 3.91666 4.85714H0.75C0.335781 4.85714 0 4.44941 0 3.94643V0.910714C0 0.407734 0.335781 0 0.75 0H3.91666C4.33087 0 4.66666 0.407734 4.66666 0.910714ZM10.3333 10.0179V6.98214C10.3333 6.47916 9.99756 6.07143 9.58334 6.07143H6.41666C6.00244 6.07143 5.66666 6.47916 5.66666 6.98214V10.0179C5.66666 10.5208 6.00244 10.9286 6.41666 10.9286H9.58331C9.99756 10.9286 10.3333 10.5208 10.3333 10.0179ZM11.3333 0.910714V3.94643C11.3333 4.44941 11.6691 4.85714 12.0833 4.85714H15.25C15.6642 4.85714 16 4.44941 16 3.94643V0.910714C16 0.407734 15.6642 0 15.25 0H12.0833C11.6691 0 11.3333 0.407734 11.3333 0.910714ZM10.3333 3.94643V0.910714C10.3333 0.407734 9.99756 0 9.58334 0H6.41666C6.00244 0 5.66666 0.407734 5.66666 0.910714V3.94643C5.66666 4.44941 6.00244 4.85714 6.41666 4.85714H9.58331C9.99756 4.85714 10.3333 4.44941 10.3333 3.94643ZM3.91666 6.07143H0.75C0.335781 6.07143 0 6.47916 0 6.98214V10.0179C0 10.5208 0.335781 10.9286 0.75 10.9286H3.91666C4.33087 10.9286 4.66666 10.5208 4.66666 10.0179V6.98214C4.66666 6.47916 4.33087 6.07143 3.91666 6.07143ZM0 13.0536V16.0893C0 16.5923 0.335781 17 0.75 17H3.91666C4.33087 17 4.66666 16.5923 4.66666 16.0893V13.0536C4.66666 12.5506 4.33087 12.1429 3.91666 12.1429H0.75C0.335781 12.1429 0 12.5506 0 13.0536ZM12.0833 10.9286H15.25C15.6642 10.9286 16 10.5208 16 10.0179V6.98214C16 6.47916 15.6642 6.07143 15.25 6.07143H12.0833C11.6691 6.07143 11.3333 6.47916 11.3333 6.98214V10.0179C11.3333 10.5208 11.6691 10.9286 12.0833 10.9286ZM12.0833 17H15.25C15.6642 17 16 16.5923 16 16.0893V13.0536C16 12.5506 15.6642 12.1429 15.25 12.1429H12.0833C11.6691 12.1429 11.3333 12.5506 11.3333 13.0536V16.0893C11.3333 16.5923 11.6691 17 12.0833 17ZM5.66666 13.0536V16.0893C5.66666 16.5923 6.00244 17 6.41666 17H9.58331C9.99753 17 10.3333 16.5923 10.3333 16.0893V13.0536C10.3333 12.5506 9.99753 12.1429 9.58331 12.1429H6.41666C6.00244 12.1429 5.66666 12.5506 5.66666 13.0536Z" fill="black"/>
</svg>
