<svg width="18" height="19" viewBox="0 0 18 19" fill="none" xmlns="http://www.w3.org/2000/svg">
<path d="M18 13.3594V0.890625C18 0.39707 17.5701 0 17.0357 0H3.85714C1.72768 0 0 1.5957 0 3.5625V15.4375C0 17.4043 1.72768 19 3.85714 19H17.0357C17.5701 19 18 18.6029 18 18.1094V17.5156C18 17.2373 17.8594 16.985 17.6424 16.8217C17.4737 16.2502 17.4737 14.6211 17.6424 14.0496C17.8594 13.89 18 13.6377 18 13.3594ZM5.14286 4.97266C5.14286 4.8502 5.25134 4.75 5.38393 4.75H13.9018C14.0344 4.75 14.1429 4.8502 14.1429 4.97266V5.71484C14.1429 5.8373 14.0344 5.9375 13.9018 5.9375H5.38393C5.25134 5.9375 5.14286 5.8373 5.14286 5.71484V4.97266ZM5.14286 7.34766C5.14286 7.2252 5.25134 7.125 5.38393 7.125H13.9018C14.0344 7.125 14.1429 7.2252 14.1429 7.34766V8.08984C14.1429 8.21231 14.0344 8.3125 13.9018 8.3125H5.38393C5.25134 8.3125 5.14286 8.21231 5.14286 8.08984V7.34766ZM15.3241 16.625H3.85714C3.14598 16.625 2.57143 16.0943 2.57143 15.4375C2.57143 14.7844 3.15 14.25 3.85714 14.25H15.3241C15.2478 14.8846 15.2478 15.9904 15.3241 16.625Z" fill="black"/>
</svg>
