<svg width="17" height="17" viewBox="0 0 17 17" fill="none" xmlns="http://www.w3.org/2000/svg">
<path d="M9.5625 2.94578V2.125H10.0938C10.3873 2.125 10.625 1.80802 10.625 1.41667V0.708333C10.625 0.316979 10.3873 0 10.0938 0H6.90625C6.61273 0 6.375 0.316979 6.375 0.708333V1.41667C6.375 1.80802 6.61273 2.125 6.90625 2.125H7.4375V2.94578C3.83463 3.63508 1.0625 7.75536 1.0625 12.75H15.9375C15.9375 7.75536 13.1654 3.63508 9.5625 2.94578ZM16.4688 14.1667H0.53125C0.237734 14.1667 0 14.4836 0 14.875V16.2917C0 16.683 0.237734 17 0.53125 17H16.4688C16.7623 17 17 16.683 17 16.2917V14.875C17 14.4836 16.7623 14.1667 16.4688 14.1667Z" fill="black"/>
</svg>
