<svg width="18" height="13" viewBox="0 0 18 13" fill="none" xmlns="http://www.w3.org/2000/svg">
<path d="M0.5625 2.78571H15.1875C15.4983 2.78571 15.75 2.57795 15.75 2.32143V0.464286C15.75 0.207768 15.4983 0 15.1875 0H0.5625C0.251719 0 0 0.207768 0 0.464286V2.32143C0 2.57795 0.251719 2.78571 0.5625 2.78571ZM17.4375 5.10714H2.8125C2.50172 5.10714 2.25 5.31491 2.25 5.57143V7.42857C2.25 7.68509 2.50172 7.89286 2.8125 7.89286H17.4375C17.7483 7.89286 18 7.68509 18 7.42857V5.57143C18 5.31491 17.7483 5.10714 17.4375 5.10714ZM15.1875 10.2143H0.5625C0.251719 10.2143 0 10.4221 0 10.6786V12.5357C0 12.7922 0.251719 13 0.5625 13H15.1875C15.4983 13 15.75 12.7922 15.75 12.5357V10.6786C15.75 10.4221 15.4983 10.2143 15.1875 10.2143Z" fill="black"/>
</svg>
